<svg width="39" height="22" viewBox="0 0 39 22" fill="none" xmlns="http://www.w3.org/2000/svg">
<g clip-path="url(#clip0_211_2053)">
<path d="M38.5803 7.95044C38.5843 7.92141 38.5843 7.89207 38.5803 7.86305C38.5841 7.8394 38.5841 7.81528 38.5803 7.79158L38.2967 5.75025C38.2558 5.50603 38.1463 5.27777 37.9807 5.09099L37.9321 5.03539L37.843 4.94801L32.9332 0.801822L33.0709 0.936862C32.9582 0.80469 32.8168 0.69897 32.657 0.62749C32.4971 0.556009 32.323 0.520584 32.1473 0.523828H30.6565C30.4141 0.519119 30.1772 0.594679 29.9841 0.738289C29.7812 0.595544 29.537 0.520371 29.2873 0.523828H27.7965C27.601 0.520718 27.4082 0.56829 27.2374 0.66174C27.0667 0.755191 26.9242 0.891202 26.8243 1.056C26.6703 1.29138 26.6125 1.57497 26.6623 1.85029L26.8486 3.13703C26.7252 3.06843 26.5854 3.03283 26.4435 3.03379H19.2247C18.9657 3.03538 18.7126 3.1098 18.4955 3.24824C18.2855 3.37709 18.1169 3.56159 18.0094 3.78041L17.4503 3.31178C17.2303 3.1122 16.9399 3.00402 16.6401 3.00996H5.3136C5.05368 3.0146 4.79953 3.08578 4.57634 3.21647C4.271 3.39168 4.04722 3.67657 3.95248 4.01076L0.355205 15.806C0.287991 16.0003 0.28138 16.2099 0.336216 16.408C0.391053 16.606 0.504855 16.7836 0.663083 16.918C0.704313 16.9522 0.747604 16.9841 0.792718 17.0133C0.792718 17.0133 0.719788 16.9656 0.679278 16.9259L5.58909 21.08C5.79678 21.2675 6.06833 21.3723 6.35062 21.3739H17.7663C18.027 21.3673 18.2813 21.2933 18.5036 21.1595C18.6293 21.0921 18.7418 21.0034 18.8358 20.8973L18.8763 20.8417L18.9411 20.7623L18.9897 20.6749L19.5245 21.1277C19.7292 21.3077 19.9948 21.4067 20.2698 21.4057H31.7098C31.9702 21.3972 32.2241 21.3234 32.4471 21.1912C32.5699 21.1198 32.6818 21.0315 32.7793 20.9291L32.8197 20.8735L32.8846 20.7941C32.919 20.7438 32.9489 20.6907 32.9737 20.6352C33.0001 20.5871 33.0218 20.5365 33.0385 20.4843L36.3198 9.71377V9.61845C36.3238 9.58149 36.3238 9.54421 36.3198 9.50725V9.43578C36.3237 9.41208 36.3237 9.38796 36.3198 9.36426C36.3235 9.31404 36.3235 9.26361 36.3198 9.21333H37.3731C37.4647 9.22158 37.5569 9.22158 37.6485 9.21333H37.7215C37.7807 9.196 37.8378 9.17199 37.8916 9.14187H37.9726L38.1184 9.03067L38.1833 8.983L38.2967 8.84001V8.7924L38.3777 8.65735C38.3732 8.63109 38.3732 8.6042 38.3777 8.57794C38.3734 8.56505 38.3734 8.55111 38.3777 8.53822C38.3949 8.49165 38.4085 8.44383 38.4182 8.39523C38.4144 8.37957 38.4144 8.36322 38.4182 8.34756C38.4143 8.32391 38.4143 8.29974 38.4182 8.27609C38.4182 8.27609 38.5803 7.96631 38.5803 7.95044Z" fill="black"/>
<path d="M16.9723 3.91548C17.0154 3.95361 17.0454 4.00375 17.0584 4.05914C17.0715 4.11453 17.0669 4.1725 17.0453 4.22525L13.4561 16.0125C13.4109 16.1412 13.3185 16.2488 13.1969 16.3144C13.0979 16.3792 12.9834 16.4176 12.8646 16.4256H1.45711C1.35969 16.421 1.26739 16.3814 1.19784 16.3144C1.15647 16.2768 1.12743 16.2281 1.11444 16.1743C1.10145 16.1206 1.10511 16.0642 1.12493 16.0125L4.7222 4.22525C4.76365 4.09493 4.8532 3.98447 4.97336 3.91548C5.07394 3.85524 5.18793 3.81981 5.30554 3.81222H16.7131C16.8097 3.81313 16.9024 3.85005 16.9723 3.91548ZM11.0174 13.6376L13.1644 6.60017H7.1528L5.01386 13.6376H11.0174ZM27.8614 4.03462C27.9003 4.07896 27.9489 4.11412 28.0037 4.1375C28.0584 4.16088 28.1177 4.17187 28.1774 4.16965H29.66C29.7165 4.17019 29.7721 4.15661 29.8218 4.13021C29.8714 4.1038 29.9133 4.06543 29.9436 4.01873C29.9699 3.98225 29.9885 3.94095 29.9982 3.89728C30.008 3.85363 30.0087 3.80849 30.0003 3.76456L29.7086 1.66764C29.6809 1.57059 29.631 1.48097 29.5628 1.40552C29.5238 1.36118 29.4752 1.32601 29.4205 1.30263C29.3658 1.27926 29.3064 1.26827 29.2468 1.27049H27.7642C27.7077 1.26995 27.652 1.28353 27.6024 1.30993C27.5528 1.33634 27.5109 1.3747 27.4806 1.42141C27.4239 1.53261 27.3996 1.60409 27.4239 1.66764L27.7237 3.76456C27.739 3.86667 27.7873 3.96128 27.8614 4.03462ZM32.5686 1.65175C32.5408 1.5547 32.4909 1.46508 32.4228 1.38963C32.3855 1.34545 32.3383 1.3103 32.2849 1.28688C32.2315 1.26346 32.1734 1.25242 32.1149 1.25461H30.6241C30.5686 1.25305 30.5137 1.26626 30.4652 1.29283C30.4167 1.3194 30.3765 1.35834 30.3487 1.40552C30.2948 1.47599 30.2714 1.5645 30.2839 1.65175L30.5836 3.74867C30.6024 3.8497 30.6502 3.94338 30.7214 4.01873C30.761 4.06221 30.8098 4.09678 30.8643 4.12009C30.9189 4.14339 30.9778 4.15488 31.0373 4.15375H32.5281C32.5835 4.15447 32.6381 4.14092 32.6864 4.11443C32.7348 4.08794 32.7752 4.04947 32.8036 4.00285C32.8318 3.96731 32.8515 3.92603 32.8613 3.88205C32.8711 3.83807 32.8708 3.7925 32.8603 3.74867L32.5686 1.65175ZM26.557 4.82891L26.4111 3.79633H19.2247C19.1119 3.80243 19.0027 3.83809 18.9087 3.89959C18.849 3.93149 18.7971 3.97571 18.7565 4.02919C18.716 4.08267 18.6878 4.14414 18.6738 4.20936L18.0742 6.17919C18.0503 6.22842 18.0421 6.28365 18.0508 6.33752C18.0595 6.3914 18.0846 6.44141 18.1228 6.48104C18.1911 6.544 18.2803 6.5807 18.374 6.5843H27.1079L24.9609 13.6217H16.2513C16.139 13.6242 16.0296 13.6572 15.9353 13.717C15.8207 13.7884 15.737 13.8987 15.7004 14.0268L15.0927 15.9966C15.0729 16.0472 15.0677 16.1021 15.0777 16.1553C15.0877 16.2086 15.1125 16.2581 15.1494 16.2984C15.2156 16.3656 15.3054 16.4054 15.4006 16.4096H26.8405C26.9588 16.3997 27.0729 16.3615 27.1727 16.2984C27.2923 16.2326 27.3821 16.1247 27.4239 15.9966L30.7132 5.22605H27.0107C26.9519 5.22719 26.8936 5.2165 26.8392 5.19464C26.7849 5.17278 26.7357 5.14021 26.6947 5.09896C26.6277 5.02693 26.5804 4.93952 26.557 4.84479V4.82891Z" fill="white"/>
</g>
<defs>
<clipPath id="clip0_211_2053">
<rect width="38.2838" height="20.8821" fill="white" transform="translate(0.299438 0.523621)"/>
</clipPath>
</defs>
</svg>
