<svg width="28" height="28" viewBox="0 0 28 28" fill="none" xmlns="http://www.w3.org/2000/svg">
<path fill-rule="evenodd" clip-rule="evenodd" d="M6.97901 0.149902C10.8233 0.149902 13.9397 3.26631 13.9397 7.1106V0.149902H20.9004C24.7446 0.149902 27.8611 3.26631 27.8611 7.1106C27.8611 10.9548 24.7446 14.0713 20.9004 14.0713C24.7446 14.0713 27.8611 17.1877 27.8611 21.032C27.8611 22.9408 27.0927 24.6702 25.8484 25.9277L25.8224 25.954L25.7993 25.9769C24.5415 27.223 22.8108 27.9927 20.9004 27.9927C19.003 27.9927 17.2829 27.2335 16.0272 26.0023C16.0109 25.9863 15.9946 25.9701 15.9784 25.954C15.9632 25.9387 15.948 25.9234 15.9329 25.908C14.7001 24.6522 13.9397 22.9309 13.9397 21.032C13.9397 24.8762 10.8233 27.9927 6.97901 27.9927C3.13472 27.9927 0.0183105 24.8762 0.0183105 21.032V14.0713H6.97901C3.13472 14.0713 0.0183105 10.9548 0.0183105 7.1106C0.0183105 3.26631 3.13472 0.149902 6.97901 0.149902ZM12.5476 7.1106C12.5476 10.186 10.0544 12.6792 6.97901 12.6792V1.54204C10.0544 1.54204 12.5476 4.03517 12.5476 7.1106ZM26.469 21.032C26.469 17.9565 23.9758 15.4634 20.9004 15.4634C17.825 15.4634 15.3318 17.9565 15.3318 21.032H26.469ZM1.41045 15.4634V21.032C1.41045 24.1074 3.90358 26.6005 6.97901 26.6005C10.0544 26.6005 12.5476 24.1074 12.5476 21.032V15.4634H1.41045ZM15.3318 12.6792V1.54204H20.9004C23.9758 1.54204 26.469 4.03517 26.469 7.1106C26.469 10.186 23.9758 12.6792 20.9004 12.6792H15.3318Z" fill="#263238"/>
</svg>
