<svg width="34" height="34" viewBox="0 0 34 34" fill="none" xmlns="http://www.w3.org/2000/svg">
<path d="M7.0907 5.71717H26.9286C28.0102 5.71717 29.0505 6.12059 29.8485 6.84315L30.0048 6.99158C30.8206 7.8074 31.2791 8.91403 31.2792 10.0678V23.641C31.2792 24.7948 30.8206 25.9013 30.0048 26.7172C29.1889 27.533 28.0824 27.9916 26.9286 27.9916H7.0907C6.00908 27.9915 4.96877 27.5891 4.17078 26.8666L4.01453 26.7172C3.19884 25.9013 2.74011 24.7947 2.74011 23.641V10.0678C2.74017 8.98605 3.14341 7.94585 3.86609 7.14783L4.01453 6.99158C4.77932 6.22679 5.79973 5.77645 6.87488 5.72303L7.0907 5.71717ZM4.13269 23.641C4.13269 24.3275 4.37134 24.9896 4.80261 25.516L4.9989 25.7328C5.55364 26.2875 6.30619 26.5999 7.0907 26.6H26.9286C27.7132 26.6 28.4656 26.2876 29.0204 25.7328C29.5752 25.178 29.8876 24.4256 29.8876 23.641V13.3744H4.13269V23.641ZM22.2303 20.3353H25.3632C25.5014 20.3354 25.6355 20.376 25.7489 20.4515L25.8553 20.5385C25.9858 20.6689 26.0584 20.8462 26.0585 21.0306C26.0585 21.2151 25.9856 21.3923 25.8553 21.5228C25.7249 21.6533 25.5476 21.7268 25.3632 21.7269H22.2303C22.0458 21.7269 21.8687 21.6534 21.7382 21.5228C21.6078 21.3923 21.5341 21.2151 21.5341 21.0306C21.5341 20.8924 21.5756 20.7583 21.6512 20.6449L21.7382 20.5385C21.8687 20.408 22.0458 20.3354 22.2303 20.3353ZM7.0907 7.10975C6.30619 7.10981 5.55364 7.42123 4.9989 7.97596C4.44417 8.53069 4.13275 9.28325 4.13269 10.0678V11.9818H29.8876V10.0678C29.8875 9.38131 29.6489 8.71912 29.2177 8.19276L29.0204 7.97596C28.4656 7.42134 27.713 7.10975 26.9286 7.10975H7.0907Z" fill="#4CAF4F" stroke="#4CAF4F" stroke-width="0.696069"/>
</svg>
