<svg width="12" height="13" viewBox="0 0 12 13" fill="none" xmlns="http://www.w3.org/2000/svg">
<path fill-rule="evenodd" clip-rule="evenodd" d="M5.98918 0.834473C4.37601 0.834473 4.17356 0.841526 3.53998 0.870359C2.90763 0.899316 2.476 0.999427 2.09833 1.14632C1.70766 1.29803 1.37626 1.50097 1.04611 1.83125C0.715701 2.16141 0.512756 2.49281 0.360547 2.88335C0.213288 3.26115 0.113053 3.6929 0.084591 4.325C0.0562529 4.95859 0.0488281 5.16116 0.0488281 6.77433C0.0488281 8.38749 0.0560055 8.58932 0.0847147 9.22291C0.113795 9.85525 0.213907 10.2869 0.360671 10.6646C0.512508 11.0552 0.715453 11.3866 1.04573 11.7168C1.37577 12.0472 1.70716 12.2506 2.09758 12.4023C2.47551 12.5492 2.90726 12.6493 3.53948 12.6783C4.17307 12.7071 4.37539 12.7142 5.98844 12.7142C7.60173 12.7142 7.80356 12.7071 8.43714 12.6783C9.06949 12.6493 9.50161 12.5492 9.87954 12.4023C10.2701 12.2506 10.601 12.0472 10.931 11.7168C11.2614 11.3866 11.4644 11.0552 11.6166 10.6647C11.7626 10.2869 11.8628 9.85513 11.8925 9.22303C11.921 8.58945 11.9284 8.38749 11.9284 6.77433C11.9284 5.16116 11.921 4.95871 11.8925 4.32513C11.8628 3.69278 11.7626 3.26115 11.6166 2.88348C11.4644 2.49281 11.2614 2.16141 10.931 1.83125C10.6006 1.50085 10.2702 1.29791 9.87916 1.14632C9.5005 0.999427 9.06862 0.899316 8.43627 0.870359C7.80269 0.841526 7.60098 0.834473 5.98732 0.834473H5.98918ZM5.4563 1.90487C5.61445 1.90462 5.79091 1.90487 5.98915 1.90487C7.57509 1.90487 7.76307 1.91056 8.38935 1.93902C8.96848 1.9655 9.2828 2.06227 9.49218 2.14358C9.76937 2.25124 9.967 2.37993 10.1748 2.58783C10.3827 2.79572 10.5114 2.99372 10.6193 3.27091C10.7006 3.48004 10.7975 3.79436 10.8238 4.3735C10.8523 4.99966 10.8585 5.18775 10.8585 6.77295C10.8585 8.35815 10.8523 8.54624 10.8238 9.1724C10.7973 9.75154 10.7006 10.0659 10.6193 10.275C10.5116 10.5522 10.3827 10.7496 10.1748 10.9573C9.96687 11.1652 9.7695 11.2939 9.49218 11.4016C9.28305 11.4833 8.96848 11.5798 8.38935 11.6063C7.76319 11.6347 7.57509 11.6409 5.98915 11.6409C4.40309 11.6409 4.21512 11.6347 3.58896 11.6063C3.00982 11.5795 2.6955 11.4828 2.486 11.4015C2.20881 11.2938 2.01081 11.1651 1.80292 10.9572C1.59502 10.7493 1.46632 10.5518 1.35842 10.2745C1.27712 10.0654 1.18022 9.75104 1.15386 9.17191C1.1254 8.54575 1.11971 8.35765 1.11971 6.77146C1.11971 5.18528 1.1254 4.99817 1.15386 4.37201C1.18035 3.79287 1.27712 3.47856 1.35842 3.26918C1.46608 2.99198 1.59502 2.79399 1.80292 2.58609C2.01081 2.3782 2.20881 2.2495 2.486 2.1416C2.69538 2.05992 3.00982 1.9634 3.58896 1.93679C4.13691 1.91204 4.34926 1.90462 5.4563 1.90338V1.90487ZM9.1598 2.89113C8.76629 2.89113 8.44702 3.21003 8.44702 3.60367C8.44702 3.99718 8.76629 4.31645 9.1598 4.31645C9.55332 4.31645 9.87258 3.99718 9.87258 3.60367C9.87258 3.21015 9.55332 2.89113 9.1598 2.89113ZM5.98919 3.72395C4.30462 3.72395 2.93882 5.08974 2.93882 6.77431C2.93882 8.45888 4.30462 9.82405 5.98919 9.82405C7.67376 9.82405 9.03906 8.45888 9.03906 6.77431C9.03906 5.08974 7.67376 3.72395 5.98919 3.72395ZM5.98916 4.79436C7.08259 4.79436 7.96912 5.68076 7.96912 6.77431C7.96912 7.86774 7.08259 8.75426 5.98916 8.75426C4.89561 8.75426 4.00921 7.86774 4.00921 6.77431C4.00921 5.68076 4.89561 4.79436 5.98916 4.79436Z" fill="white"/>
</svg>
