<svg width="13" height="13" viewBox="0 0 13 13" fill="none" xmlns="http://www.w3.org/2000/svg">
<path fill-rule="evenodd" clip-rule="evenodd" d="M12.3397 6.76603C12.3397 7.16773 12.2988 7.56887 12.2184 7.95988C12.1401 8.34161 12.0241 8.71638 11.8721 9.07464C11.7236 9.42656 11.5395 9.76569 11.3242 10.082C11.1122 10.3962 10.868 10.6911 10.5997 10.9598C10.3308 11.2274 10.035 11.471 9.72088 11.6839C9.40358 11.8976 9.06396 12.0815 8.71183 12.2307C8.35306 12.3819 7.97742 12.4977 7.59602 12.5759C7.20449 12.6565 6.80189 12.6976 6.39961 12.6976C5.99703 12.6976 5.59445 12.6565 5.20347 12.5759C4.82149 12.4977 4.44588 12.3819 4.08738 12.2307C3.73528 12.0815 3.39533 11.8976 3.07803 11.6839C2.76391 11.471 2.46807 11.2274 2.19978 10.9598C1.93121 10.6911 1.68698 10.3962 1.47467 10.082C1.26061 9.76569 1.07613 9.42654 0.927061 9.07464C0.77506 8.71638 0.658769 8.34159 0.580164 7.95988C0.500699 7.56887 0.460083 7.16773 0.460083 6.76603C0.460083 6.36403 0.500676 5.96203 0.580187 5.57188C0.658792 5.19015 0.775083 4.8148 0.927085 4.45712C1.07616 4.10494 1.26064 3.76551 1.47469 3.44922C1.687 3.1347 1.93123 2.84042 2.1998 2.57136C2.46809 2.30373 2.76394 2.06076 3.07805 1.84817C3.39536 1.63355 3.7353 1.44966 4.08741 1.3002C4.44591 1.14869 4.82149 1.03257 5.2035 0.954961C5.59447 0.87503 5.99705 0.834473 6.39963 0.834473C6.80191 0.834473 7.20449 0.87503 7.59605 0.954961C7.97745 1.03259 8.35306 1.14872 8.71186 1.3002C9.06396 1.44963 9.40361 1.63355 9.72091 1.84817C10.035 2.06076 10.3309 2.30373 10.5997 2.57136C10.868 2.84042 11.1123 3.1347 11.3243 3.44922C11.5395 3.76551 11.7236 4.10497 11.8721 4.45712C12.0241 4.8148 12.1401 5.19015 12.2184 5.57188C12.2988 5.96203 12.3397 6.36403 12.3397 6.76603ZM4.23527 2.18442C2.82072 2.85144 1.76496 4.15301 1.43575 5.72163C1.56948 5.72279 3.68332 5.74944 6.11881 5.10326C5.24086 3.54565 4.30286 2.27451 4.23527 2.18442ZM6.53908 5.88326C3.92725 6.66406 1.42096 6.60788 1.33106 6.60442C1.3296 6.65886 1.32699 6.71156 1.32699 6.76603C1.32699 8.06729 1.81861 9.2536 2.62668 10.1506C2.62493 10.148 4.01311 7.68877 6.75053 6.80484C6.81665 6.78283 6.88396 6.76312 6.95066 6.74402C6.82335 6.45615 6.68439 6.16767 6.53908 5.88326ZM9.7496 2.96439C8.85654 2.17804 7.68391 1.70105 6.39959 1.70105C5.98743 1.70105 5.58746 1.75087 5.20432 1.84297C5.28029 1.94493 6.23311 3.20711 7.10062 4.79771C9.01463 4.08119 9.73712 2.98291 9.7496 2.96439ZM7.29643 7.58335C7.28513 7.58709 7.27383 7.59031 7.26279 7.59435C4.26987 8.63622 3.2925 10.7359 3.28192 10.7588C4.14308 11.4275 5.22321 11.831 6.39963 11.831C7.10209 11.831 7.77122 11.6882 8.38002 11.4296C8.3049 10.987 8.01022 9.4358 7.29643 7.58335ZM9.23419 10.9668C10.3732 10.1993 11.1821 8.98052 11.4078 7.56884C11.3033 7.53525 9.88416 7.08661 8.24686 7.34874C8.91222 9.17456 9.18256 10.6615 9.23419 10.9668ZM7.49106 5.55249C7.60879 5.79404 7.7228 6.03989 7.82808 6.28697C7.86551 6.37561 7.90205 6.46251 7.93772 6.54938C9.6803 6.33041 11.3971 6.69882 11.4705 6.71386C11.4589 5.51309 11.0287 4.41105 10.317 3.54828C10.3074 3.56186 9.49382 4.73572 7.49106 5.55249Z" fill="white"/>
</svg>
