<svg width="29" height="28" viewBox="0 0 29 28" fill="none" xmlns="http://www.w3.org/2000/svg">
<g clip-path="url(#clip0_211_2512)">
<path fill-rule="evenodd" clip-rule="evenodd" d="M7.34876 0.0546265C11.193 0.0546265 14.3095 3.17103 14.3095 7.01532V0.0546265H21.2701C25.1144 0.0546265 28.2308 3.17103 28.2308 7.01532C28.2308 10.8596 25.1144 13.976 21.2701 13.976C25.1144 13.976 28.2308 17.0925 28.2308 20.9367C28.2308 22.8455 27.4625 24.5749 26.2182 25.8324L26.1921 25.8587L26.169 25.8817C24.9112 27.1278 23.1806 27.8974 21.2701 27.8974C19.3727 27.8974 17.6526 27.1382 16.397 25.907C16.3807 25.891 16.3644 25.8748 16.3482 25.8587C16.3329 25.8434 16.3178 25.8281 16.3026 25.8127C15.0698 24.5569 14.3095 22.8356 14.3095 20.9367C14.3095 24.781 11.193 27.8974 7.34876 27.8974C3.50447 27.8974 0.388062 24.781 0.388062 20.9367V13.976H7.34876C3.50447 13.976 0.388062 10.8596 0.388062 7.01532C0.388062 3.17103 3.50447 0.0546265 7.34876 0.0546265ZM12.9173 7.01532C12.9173 10.0908 10.4242 12.5839 7.34876 12.5839V1.44677C10.4242 1.44677 12.9173 3.93989 12.9173 7.01532ZM26.8387 20.9367C26.8387 17.8613 24.3456 15.3682 21.2701 15.3682C18.1947 15.3682 15.7016 17.8613 15.7016 20.9367H26.8387ZM1.7802 15.3682V20.9367C1.7802 24.0122 4.27333 26.5053 7.34876 26.5053C10.4242 26.5053 12.9173 24.0122 12.9173 20.9367V15.3682H1.7802ZM15.7016 12.5839V1.44677H21.2701C24.3456 1.44677 26.8387 3.93989 26.8387 7.01532C26.8387 10.0908 24.3456 12.5839 21.2701 12.5839H15.7016Z" fill="#5417D7"/>
</g>
<defs>
<clipPath id="clip0_211_2512">
<rect width="27.8428" height="27.8428" fill="white" transform="translate(0.388062 0.0546265)"/>
</clipPath>
</defs>
</svg>
